<?xml version="1.0" encoding="utf-8"?>
<!-- Generator: Adobe Illustrator 16.0.0, SVG Export Plug-In . SVG Version: 6.00 Build 0)  -->
<!DOCTYPE svg PUBLIC "-//W3C//DTD SVG 1.1//EN" "http://www.w3.org/Graphics/SVG/1.1/DTD/svg11.dtd">
<svg version="1.1" id="Your_Icon" xmlns="http://www.w3.org/2000/svg" xmlns:xlink="http://www.w3.org/1999/xlink" x="0px" y="0px"
	 width="100px" height="100px" viewBox="0 0.562 100 100" enable-background="new 0 0.562 100 100" xml:space="preserve">
<polygon points="50,32.772 46.355,34.551 21.291,22.333 21.291,46.768 18.101,48.323 18.101,19 21.746,19 28.292,22.19 "/>
<path d="M21.746,19l6.547,3.19h43.415L50,32.772l-3.645,1.778L21.291,46.768l-3.19,1.555v1.778h63.797V19H21.746z M28.292,46.912
	L50,36.329l21.707,10.583H28.292z M78.709,46.768L53.645,34.551l25.064-12.217V46.768z"/>
<path d="M18.101,53.291V69.24h3.19v-3.189h3.19v3.189h3.19V53.291H18.101z M24.481,62.86h-3.19v-6.379h3.19V62.86z"/>
<rect x="30.861" y="53.291" width="51.038" height="3.19"/>
<rect x="30.861" y="59.671" width="51.038" height="3.189"/>
<rect x="30.861" y="66.051" width="51.038" height="3.189"/>
<rect x="18.101" y="72.431" width="63.797" height="3.189"/>
<rect x="18.101" y="78.811" width="63.797" height="3.189"/>
</svg>
