<?xml version="1.0" encoding="utf-8"?>
<!-- Generator: Adobe Illustrator 16.0.0, SVG Export Plug-In . SVG Version: 6.00 Build 0)  -->
<!DOCTYPE svg PUBLIC "-//W3C//DTD SVG 1.1//EN" "http://www.w3.org/Graphics/SVG/1.1/DTD/svg11.dtd">
<svg version="1.1" id="Layer_1" xmlns="http://www.w3.org/2000/svg" xmlns:xlink="http://www.w3.org/1999/xlink" x="0px" y="0px"
	 width="100px" height="100px" viewBox="-24.818 -23.252 100 100" enable-background="new -24.818 -23.252 100 100"
	 xml:space="preserve">
<g id="Layer_1_1_">
	<g id="Foreground">
	</g>
	<path d="M24.813,7.214c4.11,0,7.45,3.336,7.45,7.451c0,4.116-3.34,7.442-7.45,7.442c-4.108,0-7.44-3.328-7.44-7.442
		C17.372,10.55,20.704,7.214,24.813,7.214z"/>
	<path d="M56.662,32.845c-1.866-0.963-4.161-0.232-5.127,1.636L49.65,38.12L38.796,26.246c-0.225-0.246-0.48-0.442-0.747-0.615
		c-1.038-0.854-2.761-1.465-5.476-1.635h-3.02v31.578h-9.285V23.995L2.728,24.02l7.762-13.894c0.99-1.771,0.515-3.95-1.013-5.181
		l15.503-7.471c0.583-0.281,0.829-0.98,0.547-1.564c-0.28-0.582-0.975-0.826-1.563-0.545L5.134,4.439
		C5.128,4.442,5.127,4.447,5.12,4.449C4.392,4.803,3.76,5.37,3.336,6.132L-7.835,26.131c-0.71,1.27-0.693,2.82,0.043,4.077
		c0.737,1.249,2.082,2.021,3.534,2.021c0.003,0,14.488-0.023,14.488-0.023v23.369H1.936v2.674h44.101v-2.675h-6.592V38.234
		l8.271,9.049c0.725,0.795,1.747,1.238,2.808,1.238c0.165,0,0.332-0.012,0.497-0.032c1.237-0.163,2.311-0.92,2.883-2.025
		l4.392-8.486C59.26,36.109,58.531,33.814,56.662,32.845z"/>
</g>
<g id="Layer_2">
</g>
</svg>
