<?xml version="1.0" encoding="utf-8"?>
<!-- Generator: Adobe Illustrator 16.0.0, SVG Export Plug-In . SVG Version: 6.00 Build 0)  -->
<!DOCTYPE svg PUBLIC "-//W3C//DTD SVG 1.1//EN" "http://www.w3.org/Graphics/SVG/1.1/DTD/svg11.dtd">
<svg version="1.1" id="Layer_1" xmlns="http://www.w3.org/2000/svg" xmlns:xlink="http://www.w3.org/1999/xlink" x="0px" y="0px"
	 width="100px" height="100px" viewBox="0.33 1.465 100 100" enable-background="new 0.33 1.465 100 100" xml:space="preserve">
<path d="M59.822,77.406v1.125c0,0.624-0.506,1.128-1.129,1.128H45.16c-0.624,0-1.127-0.507-1.127-1.128v-1.125H0.33v2.255
	c0,0,0,3.384,3.384,3.384h93.232c3.384,0,3.384-3.384,3.384-3.384v-2.255H59.822z"/>
<path d="M83.411,19.885H17.249c-1.871,0-3.384,1.515-3.384,3.384v1.127V70.64c0,1.868,1.514,3.383,3.384,3.383h1.127h63.91h1.126
	c1.869,0,3.384-1.517,3.384-3.383V24.396v-1.127C86.795,21.399,85.28,19.885,83.411,19.885z M82.285,69.512H18.376V24.396h63.909
	V69.512z"/>
<rect x="23.799" y="29.633" width="28.868" height="2.773"/>
<rect x="23.799" y="37.614" width="28.868" height="2.773"/>
<rect x="23.799" y="45.593" width="28.868" height="2.773"/>
<rect x="23.8" y="53.573" width="53.717" height="2.773"/>
<rect x="23.8" y="61.554" width="53.717" height="2.773"/>
<rect x="57.672" y="29.295" width="19.016" height="19.015"/>
</svg>
