<?xml version="1.0" encoding="utf-8"?>
<!-- Generator: Adobe Illustrator 16.0.0, SVG Export Plug-In . SVG Version: 6.00 Build 0)  -->
<!DOCTYPE svg PUBLIC "-//W3C//DTD SVG 1.1//EN" "http://www.w3.org/Graphics/SVG/1.1/DTD/svg11.dtd">
<svg version="1.1" id="Calque_1" xmlns="http://www.w3.org/2000/svg" xmlns:xlink="http://www.w3.org/1999/xlink" x="0px" y="0px"
	 width="121.83px" height="121.831px" viewBox="0 0 121.83 121.831" enable-background="new 0 0 121.83 121.831"
	 xml:space="preserve">
<g>
	<g>
		<path fill="#FFCB04" d="M122,61c0,33.69-27.31,61-60.999,61S0,94.69,0,61S27.312,0,61.001,0S122,27.31,122,61"/>
	</g>
	<g>
		<path d="M17.248,64.418c0-6.125,3.488-9.984,8.43-9.984c1.37,0,2.408,0.278,3.446,0.875v-7.717c0-1.313-0.332-1.949-2.45-1.989
			v-0.478l8.389-0.318V71.22c0,1.034,0.415,1.71,2.408,1.71v0.398l-8.222,0.159l-0.042-2.347c-1.162,1.432-2.74,2.506-4.941,2.506
			C20.279,73.646,17.248,70.663,17.248,64.418z M29.124,70.385V56.9c-0.498-0.835-1.453-1.472-2.491-1.472
			c-2.034,0-3.197,2.785-3.197,8.592c0,4.773,1.121,7.558,3.446,7.558C27.878,71.578,28.501,71.101,29.124,70.385z"/>
		<path d="M49.22,55.031c0.914-1.87,2.325-3.421,4.277-3.421c1.536,0,2.408,0.875,2.408,2.188c0,1.034-0.623,2.029-1.951,2.029
			c-1.163,0-2.035-1.034-2.035-2.387c-0.706,0.278-1.453,1.034-1.993,1.87c2.201,0.994,3.53,2.824,3.53,5.25
			c0,3.66-3.281,6.205-7.849,6.205c-1.038,0-1.993-0.119-2.824-0.318c-1.162,0.517-1.619,1.034-1.619,1.71
			c0,0.756,0.706,1.313,2.948,1.313h4.111c4.277,0,6.437,1.67,6.437,4.932c0,3.541-3.779,6.643-9.883,6.643
			c-4.775,0-7.89-1.432-7.89-3.819c0-1.631,1.453-2.625,4.069-3.222v-0.08c-2.118-0.915-2.948-2.347-2.948-3.779
			c0-1.472,1.328-3.023,3.736-4.018c-2.408-0.915-3.903-2.784-3.903-5.41c0-3.66,3.281-6.245,7.849-6.245
			C47.02,54.474,48.182,54.672,49.22,55.031z M51.089,76.55c0-1.432-0.83-2.426-3.945-2.426h-5.356
			c-0.913,0.676-1.37,1.512-1.37,2.665c0,2.466,1.91,3.54,5.273,3.54C48.971,80.329,51.089,79.016,51.089,76.55z M47.975,60.639
			c0-3.62-0.706-5.45-2.45-5.45s-2.201,1.671-2.201,5.45c0,3.818,0.706,5.41,2.45,5.41S47.975,64.378,47.975,60.639z"/>
		<path d="M57.484,70.305V47.592c0-1.273-0.249-1.989-2.449-1.989v-0.478l8.388-0.318V56.82c1.37-1.392,3.072-2.386,5.232-2.386
			c4.484,0,6.686,4.017,6.686,9.029c0,5.688-3.156,10.183-8.347,10.183c-1.827,0-4.111-0.478-5.896-1.83l-2.907,2.188h-0.788
			L57.484,70.305z M69.111,64.02c0-4.574-1.038-7.597-3.28-7.597c-0.913,0-1.619,0.557-2.408,1.273v12.53
			c0.789,1.79,1.702,2.585,2.782,2.585C68.322,72.811,69.111,69.35,69.111,64.02z"/>
		<path d="M76.168,72.851c1.911-0.08,2.284-0.398,2.284-1.511V57.457c0-1.193-0.249-1.949-2.284-1.989v-0.478l8.181-0.318v3.541
			c1.246-2.466,3.031-3.779,5.108-3.779c2.367,0,3.404,1.631,3.404,3.262c0,1.83-1.121,3.301-2.989,3.301
			c-1.869,0-2.99-1.352-2.99-2.943c0-0.478,0.125-1.074,0.249-1.432c-0.706,0.08-2.034,1.233-2.74,2.665V71.26
			c0,1.153,0.415,1.472,3.073,1.591v0.478H76.168V72.851z"/>
		<path d="M94.602,67.998V49.82l5.896-1.392v6.444h5.025v1.312h-5.025v12.45c0,2.188,0.623,2.943,1.91,2.943
			c1.121,0,1.869-0.755,2.575-2.347l0.664,0.278c-1.204,2.864-2.782,4.137-5.688,4.137C97.052,73.646,94.602,72.254,94.602,67.998z"
			/>
	</g>
</g>
</svg>
